<mxfile host="app.diagrams.net" agent="Mozilla/5.0 (Windows NT 10.0; Win64; x64) AppleWebKit/537.36 (KHTML, like Gecko) Chrome/131.0.0.0 Safari/537.36" version="26.0.5">
  <diagram name="第 1 页" id="d4cBeflVY-WApsIoRnZR">
    <mxGraphModel dx="2723" dy="1594" grid="1" gridSize="10" guides="1" tooltips="1" connect="1" arrows="1" fold="1" page="1" pageScale="1" pageWidth="827" pageHeight="1169" math="0" shadow="0">
      <root>
        <mxCell id="0" />
        <mxCell id="1" parent="0" />
        <mxCell id="9OJgzU2HVm1AZTOFKFNu-5" style="edgeStyle=orthogonalEdgeStyle;rounded=0;orthogonalLoop=1;jettySize=auto;html=1;entryX=0.5;entryY=1;entryDx=0;entryDy=0;shape=link;fontSize=19;" parent="1" source="9OJgzU2HVm1AZTOFKFNu-1" target="9OJgzU2HVm1AZTOFKFNu-3" edge="1">
          <mxGeometry relative="1" as="geometry" />
        </mxCell>
        <mxCell id="9OJgzU2HVm1AZTOFKFNu-12" value="5" style="edgeLabel;html=1;align=center;verticalAlign=middle;resizable=0;points=[];fontSize=19;" parent="9OJgzU2HVm1AZTOFKFNu-5" vertex="1" connectable="0">
          <mxGeometry x="0.0143" y="1" relative="1" as="geometry">
            <mxPoint as="offset" />
          </mxGeometry>
        </mxCell>
        <mxCell id="yNBhA1N7ddSj204c8lFz-22" style="edgeStyle=orthogonalEdgeStyle;rounded=0;orthogonalLoop=1;jettySize=auto;html=1;exitX=1;exitY=0;exitDx=0;exitDy=0;entryX=0;entryY=1;entryDx=0;entryDy=0;fillColor=#dae8fc;strokeColor=#6c8ebf;shape=link;" edge="1" parent="1" source="9OJgzU2HVm1AZTOFKFNu-1" target="9OJgzU2HVm1AZTOFKFNu-4">
          <mxGeometry relative="1" as="geometry">
            <Array as="points">
              <mxPoint x="420" y="382" />
              <mxPoint x="420" y="218" />
            </Array>
          </mxGeometry>
        </mxCell>
        <mxCell id="yNBhA1N7ddSj204c8lFz-23" value="&lt;font style=&quot;font-size: 18px;&quot;&gt;15&lt;/font&gt;" style="edgeLabel;html=1;align=center;verticalAlign=middle;resizable=0;points=[];" vertex="1" connectable="0" parent="yNBhA1N7ddSj204c8lFz-22">
          <mxGeometry x="0.2335" y="1" relative="1" as="geometry">
            <mxPoint as="offset" />
          </mxGeometry>
        </mxCell>
        <mxCell id="9OJgzU2HVm1AZTOFKFNu-1" value="D" style="ellipse;whiteSpace=wrap;html=1;aspect=fixed;fontSize=19;" parent="1" vertex="1">
          <mxGeometry x="239" y="370" width="80" height="80" as="geometry" />
        </mxCell>
        <mxCell id="9OJgzU2HVm1AZTOFKFNu-8" style="edgeStyle=orthogonalEdgeStyle;rounded=0;orthogonalLoop=1;jettySize=auto;html=1;entryX=1;entryY=0.5;entryDx=0;entryDy=0;shape=link;fontSize=19;" parent="1" source="9OJgzU2HVm1AZTOFKFNu-2" target="9OJgzU2HVm1AZTOFKFNu-1" edge="1">
          <mxGeometry relative="1" as="geometry" />
        </mxCell>
        <mxCell id="9OJgzU2HVm1AZTOFKFNu-11" value="15" style="edgeLabel;html=1;align=center;verticalAlign=middle;resizable=0;points=[];fontSize=19;" parent="9OJgzU2HVm1AZTOFKFNu-8" vertex="1" connectable="0">
          <mxGeometry x="-0.0211" y="-1" relative="1" as="geometry">
            <mxPoint as="offset" />
          </mxGeometry>
        </mxCell>
        <mxCell id="9OJgzU2HVm1AZTOFKFNu-2" value="C" style="ellipse;whiteSpace=wrap;html=1;aspect=fixed;fontSize=19;" parent="1" vertex="1">
          <mxGeometry x="509" y="370" width="80" height="80" as="geometry" />
        </mxCell>
        <mxCell id="9OJgzU2HVm1AZTOFKFNu-6" style="edgeStyle=orthogonalEdgeStyle;rounded=0;orthogonalLoop=1;jettySize=auto;html=1;entryX=0;entryY=0.5;entryDx=0;entryDy=0;shape=link;fontSize=19;" parent="1" source="9OJgzU2HVm1AZTOFKFNu-3" target="9OJgzU2HVm1AZTOFKFNu-4" edge="1">
          <mxGeometry relative="1" as="geometry" />
        </mxCell>
        <mxCell id="9OJgzU2HVm1AZTOFKFNu-9" value="10" style="edgeLabel;html=1;align=center;verticalAlign=middle;resizable=0;points=[];fontSize=19;" parent="9OJgzU2HVm1AZTOFKFNu-6" vertex="1" connectable="0">
          <mxGeometry x="0.0211" relative="1" as="geometry">
            <mxPoint as="offset" />
          </mxGeometry>
        </mxCell>
        <mxCell id="yNBhA1N7ddSj204c8lFz-20" style="edgeStyle=orthogonalEdgeStyle;rounded=0;orthogonalLoop=1;jettySize=auto;html=1;exitX=1;exitY=1;exitDx=0;exitDy=0;entryX=0;entryY=0;entryDx=0;entryDy=0;fillColor=#f8cecc;strokeColor=#b85450;shape=link;" edge="1" parent="1" source="9OJgzU2HVm1AZTOFKFNu-3" target="9OJgzU2HVm1AZTOFKFNu-2">
          <mxGeometry relative="1" as="geometry">
            <Array as="points">
              <mxPoint x="307" y="300" />
              <mxPoint x="521" y="300" />
            </Array>
          </mxGeometry>
        </mxCell>
        <mxCell id="yNBhA1N7ddSj204c8lFz-21" value="12" style="edgeLabel;html=1;align=center;verticalAlign=middle;resizable=0;points=[];fontSize=18;" vertex="1" connectable="0" parent="yNBhA1N7ddSj204c8lFz-20">
          <mxGeometry x="-0.1061" y="1" relative="1" as="geometry">
            <mxPoint x="75" as="offset" />
          </mxGeometry>
        </mxCell>
        <mxCell id="9OJgzU2HVm1AZTOFKFNu-3" value="A" style="ellipse;whiteSpace=wrap;html=1;aspect=fixed;fontSize=19;" parent="1" vertex="1">
          <mxGeometry x="239" y="150" width="80" height="80" as="geometry" />
        </mxCell>
        <mxCell id="9OJgzU2HVm1AZTOFKFNu-7" style="edgeStyle=orthogonalEdgeStyle;rounded=0;orthogonalLoop=1;jettySize=auto;html=1;entryX=0.5;entryY=0;entryDx=0;entryDy=0;shape=link;fontSize=19;" parent="1" source="9OJgzU2HVm1AZTOFKFNu-4" target="9OJgzU2HVm1AZTOFKFNu-2" edge="1">
          <mxGeometry relative="1" as="geometry" />
        </mxCell>
        <mxCell id="9OJgzU2HVm1AZTOFKFNu-10" value="20" style="edgeLabel;html=1;align=center;verticalAlign=middle;resizable=0;points=[];fontSize=19;" parent="9OJgzU2HVm1AZTOFKFNu-7" vertex="1" connectable="0">
          <mxGeometry x="-0.0429" y="1" relative="1" as="geometry">
            <mxPoint as="offset" />
          </mxGeometry>
        </mxCell>
        <mxCell id="9OJgzU2HVm1AZTOFKFNu-4" value="B" style="ellipse;whiteSpace=wrap;html=1;aspect=fixed;fontSize=19;" parent="1" vertex="1">
          <mxGeometry x="509" y="150" width="80" height="80" as="geometry" />
        </mxCell>
        <mxCell id="9OJgzU2HVm1AZTOFKFNu-18" value="A螞蟻在A點開始" style="text;html=1;align=center;verticalAlign=middle;resizable=0;points=[];autosize=1;strokeColor=none;fillColor=none;fontSize=16;" parent="1" vertex="1">
          <mxGeometry x="74" y="587" width="140" height="30" as="geometry" />
        </mxCell>
        <mxCell id="9OJgzU2HVm1AZTOFKFNu-19" value="路徑 A-&amp;gt;D-&amp;gt;B-&amp;gt;C-&amp;gt;A" style="text;html=1;align=center;verticalAlign=middle;resizable=0;points=[];autosize=1;strokeColor=none;fillColor=none;fontSize=16;" parent="1" vertex="1">
          <mxGeometry x="220" y="587" width="170" height="30" as="geometry" />
        </mxCell>
        <mxCell id="9OJgzU2HVm1AZTOFKFNu-20" value="A到D的機率 = (1/5) ^beta / (1/5)^beta + (1/10)^beta + (1/12)^beta = 0.2 / 0.38 = 0.52" style="text;html=1;align=center;verticalAlign=middle;resizable=0;points=[];autosize=1;strokeColor=none;fillColor=none;fontSize=16;" parent="1" vertex="1">
          <mxGeometry x="75" y="720" width="620" height="30" as="geometry" />
        </mxCell>
        <mxCell id="9OJgzU2HVm1AZTOFKFNu-21" value="Alpha = 0.2 ，beta = 1，tau0 = 1，rho = 0.2" style="text;html=1;align=center;verticalAlign=middle;resizable=0;points=[];autosize=1;strokeColor=none;fillColor=none;fontSize=16;" parent="1" vertex="1">
          <mxGeometry x="74" y="550" width="340" height="30" as="geometry" />
        </mxCell>
        <mxCell id="9OJgzU2HVm1AZTOFKFNu-22" value="A到B的機率 = (1/10) ^beta / (1/5)^beta + (1/10)^beta + (1/12)^beta = 0.2 / 0.38 = 0.26" style="text;html=1;align=center;verticalAlign=middle;resizable=0;points=[];autosize=1;strokeColor=none;fillColor=none;fontSize=16;" parent="1" vertex="1">
          <mxGeometry x="74" y="760" width="630" height="30" as="geometry" />
        </mxCell>
        <mxCell id="9OJgzU2HVm1AZTOFKFNu-23" value="A到C的機率 = (1/10) ^beta / (1/5)^beta + (1/10)^beta + (1/12)^beta = 0.2 / 0.38 = 0.22" style="text;html=1;align=center;verticalAlign=middle;resizable=0;points=[];autosize=1;strokeColor=none;fillColor=none;fontSize=16;" parent="1" vertex="1">
          <mxGeometry x="74" y="800" width="630" height="30" as="geometry" />
        </mxCell>
        <mxCell id="9OJgzU2HVm1AZTOFKFNu-24" value="Iteration 1 (先不用管tau)" style="text;html=1;align=center;verticalAlign=middle;resizable=0;points=[];autosize=1;strokeColor=none;fillColor=none;fontSize=16;" parent="1" vertex="1">
          <mxGeometry x="74" y="680" width="200" height="30" as="geometry" />
        </mxCell>
        <mxCell id="9OJgzU2HVm1AZTOFKFNu-26" value="B螞蟻在B點開始" style="text;html=1;align=center;verticalAlign=middle;resizable=0;points=[];autosize=1;strokeColor=none;fillColor=none;fontSize=16;" parent="1" vertex="1">
          <mxGeometry x="74" y="627" width="140" height="30" as="geometry" />
        </mxCell>
        <mxCell id="9OJgzU2HVm1AZTOFKFNu-27" value="路徑 B-&amp;gt;D-&amp;gt;C-&amp;gt;A-&amp;gt;B" style="text;html=1;align=center;verticalAlign=middle;resizable=0;points=[];autosize=1;strokeColor=none;fillColor=none;fontSize=16;" parent="1" vertex="1">
          <mxGeometry x="220" y="627" width="170" height="30" as="geometry" />
        </mxCell>
        <mxCell id="9OJgzU2HVm1AZTOFKFNu-28" value="螞蟻A" style="text;html=1;align=center;verticalAlign=middle;resizable=0;points=[];autosize=1;strokeColor=none;fillColor=none;fontSize=14;" parent="1" vertex="1">
          <mxGeometry x="14" y="760" width="60" height="30" as="geometry" />
        </mxCell>
        <mxCell id="9OJgzU2HVm1AZTOFKFNu-29" value="B到D的機率 = (1/15) ^beta / (1/15)^beta + (1/10)^beta + (1/20)^beta = 0.066 / 0.216 = 0.3" style="text;html=1;align=center;verticalAlign=middle;resizable=0;points=[];autosize=1;strokeColor=none;fillColor=none;fontSize=16;" parent="1" vertex="1">
          <mxGeometry x="65" y="862" width="660" height="30" as="geometry" />
        </mxCell>
        <mxCell id="9OJgzU2HVm1AZTOFKFNu-30" value="B到A的機率 = (1/10) ^beta / (1/15)^beta + (1/10)^beta + (1/20)^beta&amp;nbsp;= 0.1 / 0.216&amp;nbsp;= 0.46" style="text;html=1;align=center;verticalAlign=middle;resizable=0;points=[];autosize=1;strokeColor=none;fillColor=none;fontSize=16;" parent="1" vertex="1">
          <mxGeometry x="64" y="900" width="650" height="30" as="geometry" />
        </mxCell>
        <mxCell id="9OJgzU2HVm1AZTOFKFNu-31" value="B到C的機率 = (1/20) ^beta / (1/15)^beta + (1/10)^beta + (1/20)^beta&amp;nbsp;= 0.05 / 0.216&amp;nbsp;= 0.24" style="text;html=1;align=center;verticalAlign=middle;resizable=0;points=[];autosize=1;strokeColor=none;fillColor=none;fontSize=16;" parent="1" vertex="1">
          <mxGeometry x="64" y="940" width="660" height="30" as="geometry" />
        </mxCell>
        <mxCell id="9OJgzU2HVm1AZTOFKFNu-32" value="螞蟻B" style="text;html=1;align=center;verticalAlign=middle;resizable=0;points=[];autosize=1;strokeColor=none;fillColor=none;fontSize=14;" parent="1" vertex="1">
          <mxGeometry x="14" y="900" width="60" height="30" as="geometry" />
        </mxCell>
        <mxCell id="9OJgzU2HVm1AZTOFKFNu-34" value="A到D的機率 = (2.7)^alpha x (1/5) ^beta / (2.7)^alpha x (1/5)^beta + (2.7)^alpha x&amp;nbsp;(1/10)^beta + (4.6)^alpha x&amp;nbsp;(1/12)^beta = 0.24 / 0.47 = 0.51" style="text;html=1;align=center;verticalAlign=middle;resizable=0;points=[];autosize=1;strokeColor=none;fillColor=none;fontSize=16;" parent="1" vertex="1">
          <mxGeometry x="79" y="1440" width="1020" height="30" as="geometry" />
        </mxCell>
        <mxCell id="9OJgzU2HVm1AZTOFKFNu-35" value="A到B的機率 = (2.7)^alpha x&amp;nbsp;(1/10) ^beta / (2.7)^alpha x (1/5)^beta + (2.7)^alpha x&amp;nbsp;(1/10)^beta + (4.6)^alpha x&amp;nbsp;(1/12)^beta = 0.12 / 0.47 = 0.25" style="text;html=1;align=center;verticalAlign=middle;resizable=0;points=[];autosize=1;strokeColor=none;fillColor=none;fontSize=16;" parent="1" vertex="1">
          <mxGeometry x="84" y="1481" width="1020" height="30" as="geometry" />
        </mxCell>
        <mxCell id="9OJgzU2HVm1AZTOFKFNu-36" value="A到C的機率 = (4.6)^alpha x (1/12) ^beta / (2.7)^alpha x (1/5)^beta + (2.7)^alpha x&amp;nbsp;(1/10)^beta + (4.6)^alpha x&amp;nbsp;(1/12)^beta = 0.24" style="text;html=1;align=center;verticalAlign=middle;resizable=0;points=[];autosize=1;strokeColor=none;fillColor=none;fontSize=16;" parent="1" vertex="1">
          <mxGeometry x="84" y="1521" width="930" height="30" as="geometry" />
        </mxCell>
        <mxCell id="9OJgzU2HVm1AZTOFKFNu-37" value="Iteration 2" style="text;html=1;align=center;verticalAlign=middle;resizable=0;points=[];autosize=1;strokeColor=none;fillColor=none;fontSize=16;" parent="1" vertex="1">
          <mxGeometry x="78" y="1290" width="90" height="30" as="geometry" />
        </mxCell>
        <mxCell id="9OJgzU2HVm1AZTOFKFNu-38" value="螞蟻A" style="text;html=1;align=center;verticalAlign=middle;resizable=0;points=[];autosize=1;strokeColor=none;fillColor=none;fontSize=14;" parent="1" vertex="1">
          <mxGeometry x="14" y="1481" width="60" height="30" as="geometry" />
        </mxCell>
        <mxCell id="9OJgzU2HVm1AZTOFKFNu-43" value="tauB-&amp;gt;D = (1-alpha) (tau0) + \sum\Delta tau = (1-0.2) * 1 + (1.9 +1.9)&amp;nbsp; = 4.6" style="text;html=1;align=center;verticalAlign=middle;resizable=0;points=[];autosize=1;strokeColor=none;fillColor=none;fontSize=16;" parent="1" vertex="1">
          <mxGeometry x="78" y="1080" width="550" height="30" as="geometry" />
        </mxCell>
        <mxCell id="9OJgzU2HVm1AZTOFKFNu-44" value="螞蟻A的 \Delta tau = Q/L = 100/52 = 1.9" style="text;html=1;align=center;verticalAlign=middle;resizable=0;points=[];autosize=1;strokeColor=none;fillColor=none;fontSize=16;" parent="1" vertex="1">
          <mxGeometry x="74" y="1020" width="310" height="30" as="geometry" />
        </mxCell>
        <mxCell id="9OJgzU2HVm1AZTOFKFNu-45" value="螞蟻B的 \Delta tau = Q/L = 100/52 = 1.9" style="text;html=1;align=center;verticalAlign=middle;resizable=0;points=[];autosize=1;strokeColor=none;fillColor=none;fontSize=16;" parent="1" vertex="1">
          <mxGeometry x="74" y="1050" width="310" height="30" as="geometry" />
        </mxCell>
        <mxCell id="9OJgzU2HVm1AZTOFKFNu-46" value="A螞蟻在A點開始" style="text;html=1;align=center;verticalAlign=middle;resizable=0;points=[];autosize=1;strokeColor=none;fillColor=none;fontSize=16;" parent="1" vertex="1">
          <mxGeometry x="78" y="1330" width="140" height="30" as="geometry" />
        </mxCell>
        <mxCell id="9OJgzU2HVm1AZTOFKFNu-47" value="路徑 A-&amp;gt;D-&amp;gt;B-&amp;gt;C-&amp;gt;A" style="text;html=1;align=center;verticalAlign=middle;resizable=0;points=[];autosize=1;strokeColor=none;fillColor=none;fontSize=16;" parent="1" vertex="1">
          <mxGeometry x="224" y="1330" width="170" height="30" as="geometry" />
        </mxCell>
        <mxCell id="9OJgzU2HVm1AZTOFKFNu-48" value="B螞蟻在B點開始" style="text;html=1;align=center;verticalAlign=middle;resizable=0;points=[];autosize=1;strokeColor=none;fillColor=none;fontSize=16;" parent="1" vertex="1">
          <mxGeometry x="78" y="1370" width="140" height="30" as="geometry" />
        </mxCell>
        <mxCell id="9OJgzU2HVm1AZTOFKFNu-49" value="路徑 B-&amp;gt;D-&amp;gt;C-&amp;gt;A-&amp;gt;B" style="text;html=1;align=center;verticalAlign=middle;resizable=0;points=[];autosize=1;strokeColor=none;fillColor=none;fontSize=16;" parent="1" vertex="1">
          <mxGeometry x="224" y="1370" width="170" height="30" as="geometry" />
        </mxCell>
        <mxCell id="yNBhA1N7ddSj204c8lFz-14" value="都有走過的部分的tau值 都要先把原本的的值 變成4.6" style="text;html=1;align=center;verticalAlign=middle;resizable=0;points=[];autosize=1;strokeColor=none;fillColor=none;fontSize=16;" vertex="1" parent="1">
          <mxGeometry x="79" y="1140" width="400" height="30" as="geometry" />
        </mxCell>
        <mxCell id="yNBhA1N7ddSj204c8lFz-17" value="只有一隻螞蟻走過的部分的tau值 都要先把原本的的值 變成2.7" style="text;html=1;align=center;verticalAlign=middle;resizable=0;points=[];autosize=1;strokeColor=none;fillColor=none;fontSize=16;" vertex="1" parent="1">
          <mxGeometry x="79" y="1169" width="460" height="30" as="geometry" />
        </mxCell>
        <mxCell id="yNBhA1N7ddSj204c8lFz-18" value="都沒走過的部分的tau值 都要先把原本的的值 變成0.8" style="text;html=1;align=center;verticalAlign=middle;resizable=0;points=[];autosize=1;strokeColor=none;fillColor=none;fontSize=16;" vertex="1" parent="1">
          <mxGeometry x="78" y="1200" width="400" height="30" as="geometry" />
        </mxCell>
      </root>
    </mxGraphModel>
  </diagram>
</mxfile>
